<mxfile host="app.diagrams.net" modified="2023-09-08T12:13:46.391Z" agent="Mozilla/5.0 (Windows NT 10.0; Win64; x64) AppleWebKit/537.36 (KHTML, like Gecko) Chrome/116.0.0.0 Safari/537.36" version="21.6.9" etag="cTl5iYih_BamdPmunk9h" type="github">
  <diagram name="Halaman-1" id="DG4yR9KUpHFV4jvjaq-4">
    <mxGraphModel>
      <root>
        <mxCell id="0" />
        <mxCell id="1" parent="0" />
      </root>
    </mxGraphModel>
  </diagram>
</mxfile>
